<?xml version="1.0" encoding="utf-8"?>
<!-- Generator: Adobe Illustrator 19.2.1, SVG Export Plug-In . SVG Version: 6.00 Build 0)  -->
<svg version="1.1" id="Слой_1" xmlns="http://www.w3.org/2000/svg" xmlns:xlink="http://www.w3.org/1999/xlink" x="0px" y="0px"
	 viewBox="0 0 41 41" style="enable-background:new 0 0 41 41;" xml:space="preserve">
<style type="text/css">
	.st0{enable-background:new    ;}
	.st1{fill:#1869FF;}
	.st2{fill:none;}
	.st3{fill:#FFFFFF;}
</style>
<g id="bg_1_" class="st0">
	<g id="bg">
		<g>
			<rect class="st1" width="41" height="41"/>
		</g>
	</g>
</g>
<g id="_xF1B4_">
	<rect y="9.5" class="st2" width="41" height="21"/>
</g>
<path class="st3" d="M17.7,19.5c1.4-0.7,2.2-1.7,2.2-3.3c0-3.2-2.4-4-5.1-4H7.3v16H15c2.9,0,5.6-1.4,5.6-4.6
	C20.6,21.5,19.7,20.1,17.7,19.5L17.7,19.5z M10.8,14.9h3.3c1.3,0,2.4,0.4,2.4,1.8s-0.9,1.9-2.1,1.9h-3.6
	C10.8,18.7,10.8,14.9,10.8,14.9z M14.5,25.5h-3.8v-4.4h3.8c1.5,0,2.5,0.6,2.5,2.3C17.1,25,16,25.5,14.5,25.5L14.5,25.5z M30.7,14.6
	h-6.5V13h6.5V14.6L30.7,14.6z M33.2,22.6c0-3.4-2-6.3-5.6-6.3c-3.5,0-5.9,2.7-5.9,6.1c0,3.6,2.3,6.1,5.9,6.1c2.8,0,4.6-1.2,5.4-3.9
	h-2.8c-0.3,1-1.5,1.5-2.5,1.5c-1.9,0-2.8-1.1-2.8-2.9h8.3C33.2,23,33.2,22.8,33.2,22.6z M24.9,21.2c0.1-1.5,1.1-2.5,2.6-2.5
	c1.6,0,2.4,0.9,2.5,2.5H24.9z"/>
</svg>
