<?xml version="1.0" encoding="utf-8"?>
<!-- Generator: Adobe Illustrator 19.2.1, SVG Export Plug-In . SVG Version: 6.00 Build 0)  -->
<svg version="1.1" id="Слой_1" xmlns="http://www.w3.org/2000/svg" xmlns:xlink="http://www.w3.org/1999/xlink" x="0px" y="0px"
	 viewBox="0 0 41 41" style="enable-background:new 0 0 41 41;" xml:space="preserve">
<style type="text/css">
	.st0{enable-background:new    ;}
	.st1{fill:#E51A68;}
	.st2{fill:none;}
	.st3{fill:#FFFDFD;}
</style>
<g id="bg_1_" class="st0">
	<g id="bg">
		<g>
			<rect class="st1" width="41" height="41"/>
		</g>
	</g>
</g>
<g id="_xF17D_">
	<rect y="7.5" class="st2" width="41" height="23.7"/>
</g>
<path class="st3" d="M20.6,8.1c-6.7,0-12.1,5.4-12.1,12.1s5.4,12.1,12.1,12.1s12.1-5.4,12.1-12.1S27.3,8.1,20.6,8.1z M28.6,13.7
	c1.4,1.8,2.3,4,2.3,6.5c-0.3-0.1-3.8-0.8-7.2-0.3c-0.3-0.7-0.5-1.3-0.9-2C26.7,16.2,28.4,14,28.6,13.7L28.6,13.7z M27.5,12.5
	c-0.2,0.3-1.7,2.4-5.4,3.7c-1.7-3.1-3.6-5.7-3.9-6.1C21.5,9.4,24.9,10.2,27.5,12.5z M16.2,10.9c0.3,0.4,2.1,2.9,3.8,6
	c-4.8,1.3-9.1,1.3-9.6,1.3C11.2,14.9,13.3,12.2,16.2,10.9z M10.3,20.2c0-0.1,0-0.2,0-0.3c0.5,0,5.5,0.1,10.6-1.5
	c0.3,0.6,0.6,1.2,0.8,1.8c-3.7,1.1-7.1,4.1-8.8,7C11.3,25.3,10.3,22.9,10.3,20.2z M14.3,28.4c1.1-2.2,4-5.1,8.2-6.5
	c1.5,3.8,2.1,6.9,2.2,7.9C21.3,31.2,17.3,30.8,14.3,28.4z M26.4,28.8c-0.1-0.6-0.7-3.7-2-7.4c3.2-0.5,6.1,0.3,6.5,0.4
	C30.4,24.8,28.7,27.3,26.4,28.8z"/>
</svg>
