<?xml version="1.0" encoding="utf-8"?>
<!-- Generator: Adobe Illustrator 19.2.1, SVG Export Plug-In . SVG Version: 6.00 Build 0)  -->
<svg version="1.1" id="Слой_1" xmlns="http://www.w3.org/2000/svg" xmlns:xlink="http://www.w3.org/1999/xlink" x="0px" y="0px"
	 viewBox="0 0 41 41" style="enable-background:new 0 0 41 41;" xml:space="preserve">
<style type="text/css">
	.st0{enable-background:new    ;}
	.st1{fill:#007BB6;}
	.st2{fill:none;}
	.st3{fill:#FFFFFF;}
</style>
<g id="bg_1_" class="st0">
	<g id="bg">
		<g>
			<rect class="st1" width="41" height="41"/>
		</g>
	</g>
</g>
<g id="_xF0E1_">
	<rect y="7.5" class="st2" width="41" height="23.7"/>
</g>
<path class="st3" d="M14.6,29.8h-4.4V15.7h4.4V29.8z M12.4,13.8c-1.4,0-2.5-1.2-2.5-2.6c0-1.4,1.1-2.5,2.5-2.5
	c1.4,0,2.5,1.1,2.5,2.5C15,12.6,13.8,13.8,12.4,13.8z M31,29.8h-4.4v-6.9c0-1.6,0-3.7-2.3-3.7c-2.3,0-2.6,1.8-2.6,3.6v7h-4.4V15.7
	h4.2v1.9h0.1c0.6-1.1,2-2.3,4.1-2.3c4.4,0,5.2,2.9,5.2,6.7L31,29.8L31,29.8z"/>
</svg>
