<?xml version="1.0" encoding="utf-8"?>
<!-- Generator: Adobe Illustrator 19.2.1, SVG Export Plug-In . SVG Version: 6.00 Build 0)  -->
<svg version="1.1" id="Слой_1" xmlns="http://www.w3.org/2000/svg" xmlns:xlink="http://www.w3.org/1999/xlink" x="0px" y="0px"
	 viewBox="0 0 41 41" style="enable-background:new 0 0 41 41;" xml:space="preserve">
<style type="text/css">
	.st0{enable-background:new    ;}
	.st1{fill:#13578A;}
	.st2{fill:none;}
	.st3{fill:#FFFFFF;}
</style>
<g id="bg_1_" class="st0">
	<g id="bg">
		<g>
			<rect class="st1" width="41" height="41"/>
		</g>
	</g>
</g>
<g id="_xF16D_">
	<rect y="7.5" class="st2" width="41" height="23.7"/>
</g>
<path class="st3" d="M20.6,14.4c-3.3,0-5.9,2.6-5.9,5.9s2.6,5.9,5.9,5.9s5.9-2.6,5.9-5.9S23.9,14.4,20.6,14.4z M20.6,24.2
	c-2.1,0-3.8-1.7-3.8-3.8s1.7-3.8,3.8-3.8s3.8,1.7,3.8,3.8S22.8,24.2,20.6,24.2L20.6,24.2z M28.2,14.2c0,0.8-0.6,1.4-1.4,1.4
	c-0.8,0-1.4-0.6-1.4-1.4s0.6-1.4,1.4-1.4C27.5,12.8,28.2,13.4,28.2,14.2z M32.1,15.6c-0.1-1.8-0.5-3.5-1.9-4.8
	c-1.3-1.3-3-1.8-4.8-1.9c-1.9-0.1-7.6-0.1-9.5,0c-1.8,0.1-3.5,0.5-4.8,1.9s-1.8,3-1.9,4.8c-0.1,1.9-0.1,7.6,0,9.5
	c0.1,1.8,0.5,3.5,1.9,4.8c1.4,1.3,3,1.8,4.8,1.9c1.9,0.1,7.6,0.1,9.5,0c1.8-0.1,3.5-0.5,4.8-1.9c1.3-1.3,1.8-3,1.9-4.8
	C32.2,23.2,32.2,17.5,32.1,15.6L32.1,15.6z M29.6,27.1c-0.4,1-1.2,1.8-2.2,2.2c-1.5,0.6-5.1,0.5-6.8,0.5s-5.3,0.1-6.8-0.5
	c-1-0.4-1.8-1.2-2.2-2.2c-0.6-1.5-0.5-5.1-0.5-6.8s-0.1-5.3,0.5-6.8c0.4-1,1.2-1.8,2.2-2.2c1.5-0.6,5.1-0.5,6.8-0.5s5.3-0.1,6.8,0.5
	c1,0.4,1.8,1.2,2.2,2.2c0.6,1.5,0.5,5.1,0.5,6.8S30.2,25.6,29.6,27.1z"/>
</svg>
