<?xml version="1.0" encoding="utf-8"?>
<!-- Generator: Adobe Illustrator 19.2.1, SVG Export Plug-In . SVG Version: 6.00 Build 0)  -->
<svg version="1.1" id="Слой_1" xmlns="http://www.w3.org/2000/svg" xmlns:xlink="http://www.w3.org/1999/xlink" x="0px" y="0px"
	 viewBox="0 0 41 41" style="enable-background:new 0 0 41 41;" xml:space="preserve">
<style type="text/css">
	.st0{enable-background:new    ;}
	.st1{fill:#56ACEF;}
	.st2{fill:none;}
	.st3{fill:#FFFFFF;}
</style>
<g id="bg_1_" class="st0">
	<g id="bg">
		<g>
			<rect class="st1" width="41" height="41"/>
		</g>
	</g>
</g>
<g id="_xF099_">
	<rect x="1" y="8.5" class="st2" width="41" height="23.7"/>
</g>
<path class="st3" d="M31.3,15.1c0,0.2,0,0.4,0,0.7c0,6.7-5.1,14.5-14.5,14.5c-2.9,0-5.6-0.8-7.8-2.3c0.4,0,0.8,0.1,1.2,0.1
	c2.4,0,4.6-0.8,6.3-2.2c-2.2,0-4.1-1.5-4.8-3.5c0.3,0,0.6,0.1,1,0.1c0.5,0,0.9-0.1,1.3-0.2c-2.3-0.5-4.1-2.5-4.1-5v-0.1
	c0.7,0.4,1.5,0.6,2.3,0.6c-1.4-0.9-2.3-2.5-2.3-4.2c0-0.9,0.3-1.8,0.7-2.6c2.5,3.1,6.3,5.1,10.5,5.3c-0.1-0.4-0.1-0.8-0.1-1.2
	c0-2.8,2.3-5.1,5.1-5.1c1.5,0,2.8,0.6,3.7,1.6c1.2-0.2,2.3-0.6,3.2-1.2c-0.4,1.2-1.2,2.2-2.2,2.8c1-0.1,2-0.4,2.9-0.8
	C33.2,13.4,32.3,14.3,31.3,15.1L31.3,15.1z"/>
</svg>
